HIERARCHY
ROOT root
{
	OFFSET 0.000000 0.000000 0.000000
	CHANNELS 6 Xposition Yposition Zposition Zrotation Yrotation Xrotation
	JOINT lhip
	{
		OFFSET 0.058581 -0.082280 -0.017664
		CHANNELS 3 Zrotation Yrotation Xrotation
		JOINT lknee
		{
			OFFSET 0.043451 -0.386469 0.008037
			CHANNELS 3 Zrotation Yrotation Xrotation
			JOINT lankle
			{
				OFFSET -0.014790 -0.426874 -0.037428
				CHANNELS 3 Zrotation Yrotation Xrotation
				JOINT ltoe
				{
					OFFSET 0.041054 -0.060286 0.122042
					CHANNELS 3 Zrotation Yrotation Xrotation
					End Site
					{
						OFFSET 0.000000 0.000000 0.000000
					}
				}
			}
		}
	}
	JOINT rhip
	{
		OFFSET -0.060310 -0.090513 -0.013543
		CHANNELS 3 Zrotation Yrotation Xrotation
		JOINT rknee
		{
			OFFSET -0.043257 -0.383688 -0.004843
			CHANNELS 3 Zrotation Yrotation Xrotation
			JOINT rankle
			{
				OFFSET 0.019056 -0.420046 -0.034562
				CHANNELS 3 Zrotation Yrotation Xrotation
				JOINT rtoe
				{
					OFFSET -0.034840 -0.062106 0.130323
					CHANNELS 3 Zrotation Yrotation Xrotation
					End Site
					{
						OFFSET 0.000000 0.000000 0.000000
					}
				}
			}
		}
	}
	JOINT lowerback
	{
		OFFSET 0.004439 0.124404 -0.038385
		CHANNELS 3 Zrotation Yrotation Xrotation
		JOINT upperback
		{
			OFFSET 0.004488 0.137956 0.026820
			CHANNELS 3 Zrotation Yrotation Xrotation
			JOINT chest
			{
				OFFSET -0.002265 0.056032 0.002855
				CHANNELS 3 Zrotation Yrotation Xrotation
				JOINT lowerneck
				{
					OFFSET -0.013390 0.211636 -0.033468
					CHANNELS 3 Zrotation Yrotation Xrotation
					JOINT upperneck
					{
						OFFSET 0.010113 0.088937 0.050410
						CHANNELS 3 Zrotation Yrotation Xrotation
						End Site
						{
							OFFSET 0.000000 0.000000 0.000000
						}
					}
				}
				JOINT lclavicle
				{
					OFFSET 0.071702 0.114000 -0.018898
					CHANNELS 3 Zrotation Yrotation Xrotation
					JOINT lshoulder
					{
						OFFSET 0.122921 0.045205 -0.019046
						CHANNELS 3 Zrotation Yrotation Xrotation
						JOINT lelbow
						{
							OFFSET 0.255332 -0.015649 -0.022946
							CHANNELS 3 Zrotation Yrotation Xrotation
							JOINT lwrist
							{
								OFFSET 0.265709 0.012698 -0.007375
								CHANNELS 3 Zrotation Yrotation Xrotation
								End Site
								{
									OFFSET 0.000000 0.000000 0.000000
								}
							}
						}
					}
				}
				JOINT rclavicle
				{
					OFFSET -0.082954 0.112472 -0.023707
					CHANNELS 3 Zrotation Yrotation Xrotation
					JOINT rshoulder
					{
						OFFSET -0.113228 0.046853 -0.008472
						CHANNELS 3 Zrotation Yrotation Xrotation
						JOINT relbow
						{
							OFFSET -0.260127 -0.014369 -0.031269
							CHANNELS 3 Zrotation Yrotation Xrotation
							JOINT rwrist
							{
								OFFSET -0.269108 0.006794 -0.006027
								CHANNELS 3 Zrotation Yrotation Xrotation
								End Site
								{
									OFFSET 0.000000 0.000000 0.000000
								}
							}
						}
					}
				}
			}
		}
	}
}
MOTION
Frames: 13
Frame Time: 0.033333
-1.292724 0.213500 0.996385 89.071765 7.494537 95.125170 6.502229 -2.163160 -13.936891 -4.759842 -14.448536 14.008932 10.445086 16.774156 -21.171727 0.000000 -0.000000 0.000000 2.666436 3.048198 -20.106363 7.717942 0.427579 48.482751 2.896640 -7.050289 -9.244394 0.000000 -0.000000 0.000000 -1.948038 -0.156250 1.739416 2.369046 -3.501295 5.635294 -0.153340 -0.212173 -7.623016 3.564302 -2.307660 -2.807418 8.409809 -4.689252 0.214551 -32.503147 -8.507803 4.771434 -52.611139 -4.173509 15.427487 13.621063 -26.587258 -7.293951 2.617107 -25.452472 -8.612343 24.195247 3.529524 2.164793 63.038971 -14.086845 0.494657 -16.801532 30.684572 -10.995140 -1.982448 15.267886 -17.891346 
-1.304820 0.212394 0.995362 88.940240 6.779350 94.841732 5.916354 -2.694488 -14.575857 -4.859488 -13.894653 14.215432 10.882059 16.724375 -20.514250 0.000000 -0.000000 0.000000 2.212540 3.228465 -16.600788 8.023075 1.996120 48.102314 3.144569 -6.583184 -8.893758 0.000000 -0.000000 0.000000 -1.627033 0.860038 0.900087 1.815462 -3.235900 6.318118 -0.716547 0.175193 -7.815224 3.520257 -3.547861 -2.450928 8.685259 -5.793845 -0.312750 -32.449293 -8.441623 4.878394 -52.248869 -2.532728 15.303221 13.153802 -24.085570 -5.814181 2.093648 -25.363266 -8.015204 24.197898 3.871305 2.239753 62.841659 -13.845022 0.315184 -17.063666 31.771399 -11.500524 -2.273153 15.629319 -17.376370 
-1.317131 0.210494 0.994033 88.812931 5.936869 94.359410 5.215065 -3.181513 -15.044518 -4.956984 -13.261731 14.459402 11.251727 16.525888 -19.993494 0.000000 -0.000000 0.000000 1.708603 3.326842 -12.338772 8.149731 3.940628 45.460628 3.443426 -6.281751 -7.816955 0.000000 -0.000000 0.000000 -1.313375 1.945339 0.157251 1.272545 -2.985985 7.323945 -1.367267 0.586049 -8.183431 3.626143 -4.828454 -2.194757 8.629151 -7.318291 -0.763429 -32.479229 -7.882962 5.007333 -51.475211 -1.045273 15.046512 12.979740 -22.388592 -4.551369 1.335613 -25.223231 -6.919293 24.339463 4.368070 2.568729 62.440480 -13.345879 0.234196 -17.247930 32.650829 -12.109722 -2.422255 15.926448 -16.978864 
-1.333779 0.207335 0.991775 88.423294 4.461517 93.900475 3.963387 -3.809641 -15.780575 -4.978256 -12.138521 14.532151 11.673842 16.141507 -19.341694 0.000000 -0.000000 0.000000 0.471874 3.149071 -7.073785 7.906526 6.817094 39.694074 5.375182 -5.673704 -6.918826 0.000000 -0.000000 0.000000 -1.139546 3.460278 -0.914521 0.484324 -2.785496 8.480991 -2.195908 1.211174 -8.519121 3.375922 -6.818648 -1.908846 8.725889 -8.905186 -1.161690 -32.582405 -6.934226 5.064057 -50.028878 1.068681 14.584121 12.991811 -21.441586 -3.943605 1.377239 -25.004007 -6.096565 24.793396 5.241845 3.061735 61.479471 -12.379889 0.223541 -17.143613 33.198561 -12.867374 -2.839216 16.128787 -15.926144 
-1.348490 0.203752 0.989346 87.945067 3.142342 93.581132 2.882797 -3.979073 -16.472071 -4.970409 -11.218046 14.472825 11.594782 15.620217 -18.771435 0.000000 -0.000000 0.000000 -0.911610 2.725774 -3.067228 7.524018 9.339236 33.377234 7.297127 -4.796967 -11.123618 0.000000 -0.000000 0.000000 -0.802687 4.727019 -1.428837 -0.437501 -2.640911 8.669915 -2.770727 1.742239 -8.397320 2.681557 -8.436319 -1.662575 8.981605 -9.828515 -1.237163 -32.482776 -5.733843 4.845771 -48.780372 2.447764 13.913088 12.966079 -21.063056 -4.409533 1.836867 -25.183541 -5.666777 25.252210 5.973218 3.508871 60.510838 -10.873977 0.468270 -16.849782 32.634794 -13.319713 -2.993426 16.520825 -14.644931 
-1.364142 0.199432 0.985891 86.985548 1.897393 93.466987 2.104132 -3.334783 -17.303554 -5.101262 -10.319215 14.129485 11.070649 14.798329 -17.842215 0.000000 -0.000000 0.000000 -2.596719 1.986854 -0.167478 7.061831 11.237984 27.065041 6.462948 -3.974590 -15.860313 0.000000 -0.000000 0.000000 -0.148764 5.941064 -1.712622 -1.330574 -2.161239 8.414664 -3.468721 2.285175 -8.249417 2.019330 -9.485523 -1.307999 8.709769 -10.980247 -1.153116 -32.153298 -3.795688 4.591634 -47.554613 3.163764 13.350996 12.929937 -21.001790 -5.269312 2.074219 -25.573518 -6.277218 25.756202 6.293287 4.295558 59.455197 -8.255172 1.771301 -16.974479 30.809361 -13.586202 -2.864800 16.749003 -14.014491 
-1.381330 0.194750 0.983013 85.646348 0.953756 93.582823 1.712425 -2.373047 -18.288205 -5.086796 -9.231424 13.531265 10.450618 13.768728 -16.522455 0.000000 -0.000000 0.000000 -4.048659 1.183299 0.806587 6.895316 11.999740 22.776104 5.283009 -3.501934 -18.469722 0.000000 -0.000000 0.000000 1.005744 6.965208 -2.009344 -2.007410 -1.388081 8.642141 -4.320310 2.777801 -8.786693 1.456497 -10.011963 -0.751553 7.758256 -12.159015 -1.001269 -31.957749 -1.720219 3.776616 -46.505997 4.127090 13.077042 13.354753 -21.082008 -7.317071 1.162045 -25.876591 -6.576211 26.436428 6.696806 4.830996 57.886794 -5.319987 3.650363 -16.923404 27.591469 -14.135593 -2.274440 16.842961 -13.114470 
-1.400811 0.190298 0.981899 84.212756 0.411733 93.744393 1.553675 -1.507736 -19.405000 -4.779310 -8.583506 12.991770 9.324809 13.359965 -14.984175 0.000000 -0.000000 0.000000 -4.545746 0.347039 0.053190 6.669300 12.780315 20.983982 3.863279 -3.683224 -20.192883 0.000000 -0.000000 0.000000 2.789972 7.503716 -1.750772 -2.532976 -0.393513 8.104905 -5.099797 3.443009 -8.547815 0.638258 -10.742631 -0.954951 6.577354 -12.562560 -0.638680 -32.212419 0.242148 2.098058 -45.318557 4.882296 13.560937 12.723958 -21.055216 -7.943458 8.495378 -23.929488 -9.430451 26.792770 7.289100 4.826794 55.812881 -1.609660 4.969832 -13.370764 24.532210 -16.400120 -12.647488 15.762408 -17.356586 
-1.421749 0.186971 0.982690 82.824964 0.283646 93.725811 1.808475 -1.269159 -20.197436 -4.045538 -7.370546 12.171244 9.213471 12.700993 -13.035605 0.000000 -0.000000 0.000000 -4.318249 0.009423 -1.252371 6.075538 13.029665 20.373064 2.861675 -3.102026 -20.882182 0.000000 -0.000000 0.000000 5.516373 7.713799 -0.953524 -3.220427 0.582245 7.915337 -5.914300 4.010534 -8.863095 0.161595 -10.543122 -0.790136 4.986020 -13.252049 -0.678129 -32.248949 1.696067 0.718157 -45.905473 6.000424 12.193750 14.793189 -20.627526 -11.646769 3.359204 -24.840213 -7.560426 27.256384 8.187345 4.977336 53.991791 1.692298 5.528259 -15.074651 19.350132 -15.205418 -4.502111 16.071137 -10.818970 
-1.443447 0.184577 0.983815 81.808040 0.195159 93.384137 1.937225 -0.987327 -20.802875 -3.260096 -6.836402 11.521842 8.584371 12.328104 -10.990024 0.000000 -0.000000 0.000000 -4.107027 0.325668 -2.275410 5.930739 13.401257 20.030231 2.104480 -3.020004 -20.997093 0.000000 -0.000000 0.000000 8.279996 7.393240 0.617334 -3.734332 1.491482 7.138999 -6.410770 4.791951 -8.354485 -0.539775 -10.412413 -1.241157 3.369802 -13.348800 -1.045705 -32.439204 2.818486 -0.550624 -46.909889 6.845903 11.471363 15.944971 -20.849486 -13.710295 5.435957 -23.462323 -8.380856 26.955743 9.345915 5.537856 52.438413 5.156001 5.071153 -14.745242 16.770488 -17.024537 -6.997844 15.342287 -10.213510 
-1.465882 0.182830 0.984514 81.555143 0.243449 93.088203 2.327034 -0.894359 -21.838238 -2.660550 -6.077074 11.258570 7.645338 11.275898 -8.768735 0.000000 -0.000000 0.000000 -3.836711 0.408826 -3.255389 6.068385 13.405427 19.780138 1.085457 -2.937343 -20.771533 0.000000 -0.000000 0.000000 10.925911 6.695047 2.366690 -4.069164 1.959329 6.296458 -6.568773 5.370918 -7.874546 -1.132818 -9.774725 -1.799085 1.700608 -13.220354 -1.508101 -32.724067 3.183164 -1.353987 -48.653592 8.361148 10.547222 17.653216 -21.653791 -16.414473 6.682226 -22.297513 -9.152160 26.397148 10.819986 6.101296 50.972464 7.665924 3.999393 -14.820995 16.214852 -19.590088 -9.265147 14.950802 -9.530555 
-1.488387 0.180882 0.985307 81.996119 0.418035 93.144262 2.880321 -0.688619 -23.346716 -2.298424 -5.348281 10.881418 6.385680 9.720479 -6.066311 0.000000 -0.000000 0.000000 -3.230143 -0.148432 -4.647156 5.912731 12.710541 19.565320 -0.139535 -2.869880 -20.214917 0.000000 -0.000000 0.000000 12.966098 5.885333 3.407705 -3.932235 1.941431 6.080062 -6.399098 5.521491 -7.877516 -1.439724 -8.984485 -2.585448 0.061794 -12.796949 -1.384473 -33.318547 3.482911 -2.082936 -50.437379 10.252181 9.638223 19.211484 -22.757004 -19.146420 6.634492 -21.500645 -9.516669 26.377441 11.985688 6.315259 48.750813 9.515057 3.236514 -14.772550 16.805318 -21.958469 -9.996166 15.312190 -8.385007 
-1.509160 0.178899 0.987247 82.644406 0.608885 93.451018 3.411307 -0.565989 -24.931871 -2.178220 -4.374815 10.729370 5.040911 8.650473 -4.051820 0.000000 -0.000000 0.000000 -2.725213 -0.525194 -6.256346 5.760227 11.734577 19.337557 -0.738399 -2.424260 -19.115167 0.000000 -0.000000 0.000000 14.396169 5.285356 3.510016 -3.282090 1.743486 6.264214 -6.015309 5.425706 -8.021050 -1.770659 -8.540896 -3.027124 -1.171176 -11.925722 -1.004187 -34.073001 4.043931 -2.499219 -52.111301 11.823908 8.942867 19.835378 -23.515610 -20.565805 6.021460 -21.070454 -9.889361 26.876713 12.276712 6.285614 45.946866 11.204005 2.314671 -14.309936 17.933102 -23.537773 -9.387235 16.098329 -7.021964 
